<svg xmlns="http://www.w3.org/2000/svg" xmlns:xlink="http://www.w3.org/1999/xlink" width="500" zoomAndPan="magnify" viewBox="0 0 375 374.999991" height="500" preserveAspectRatio="xMidYMid meet" version="1.0"><defs><g/><clipPath id="4e1c9735e4"><path d="M 0.835938 0.5 L 180.164062 0.5 L 180.164062 179.828125 L 0.835938 179.828125 Z M 0.835938 0.5 " clip-rule="nonzero"/></clipPath><clipPath id="6e08d552b9"><path d="M 90.5 0.5 C 40.980469 0.5 0.835938 40.644531 0.835938 90.164062 C 0.835938 139.683594 40.980469 179.828125 90.5 179.828125 C 140.019531 179.828125 180.164062 139.683594 180.164062 90.164062 C 180.164062 40.644531 140.019531 0.5 90.5 0.5 Z M 90.5 0.5 " clip-rule="nonzero"/></clipPath><clipPath id="bc305acdb3"><path d="M 0.835938 0.5 L 180.164062 0.5 L 180.164062 179.828125 L 0.835938 179.828125 Z M 0.835938 0.5 " clip-rule="nonzero"/></clipPath><clipPath id="81978007df"><path d="M 90.5 0.5 C 40.980469 0.5 0.835938 40.644531 0.835938 90.164062 C 0.835938 139.683594 40.980469 179.828125 90.5 179.828125 C 140.019531 179.828125 180.164062 139.683594 180.164062 90.164062 C 180.164062 40.644531 140.019531 0.5 90.5 0.5 Z M 90.5 0.5 " clip-rule="nonzero"/></clipPath><clipPath id="7958c57cf7"><rect x="0" width="181" y="0" height="180"/></clipPath><clipPath id="40aab41c29"><path d="M 33.433594 80 L 111 80 L 111 146.046875 L 33.433594 146.046875 Z M 33.433594 80 " clip-rule="nonzero"/></clipPath><clipPath id="ae1dcb7a25"><path d="M 33.433594 80 L 111 80 L 111 146 L 33.433594 146 Z M 33.433594 80 " clip-rule="nonzero"/></clipPath><clipPath id="40f0a47910"><rect x="0" width="181" y="0" height="180"/></clipPath></defs><rect x="-37.5" width="450" fill="#ffffff" y="-37.499999" height="449.999989" fill-opacity="1"/><rect x="-37.5" width="450" fill="#ffffff" y="-37.499999" height="449.999989" fill-opacity="1"/><g transform="matrix(1, 0, 0, 1, 97, 37)"><g clip-path="url(#40f0a47910)"><g clip-path="url(#4e1c9735e4)"><g clip-path="url(#6e08d552b9)"><g><g clip-path="url(#7958c57cf7)"><g clip-path="url(#bc305acdb3)"><g clip-path="url(#81978007df)"><path fill="#055c9d" d="M 0.835938 0.5 L 180.164062 0.5 L 180.164062 179.828125 L 0.835938 179.828125 Z M 0.835938 0.5 " fill-opacity="1" fill-rule="nonzero"/></g></g></g></g></g></g><path stroke-linecap="butt" transform="matrix(0.271146, 0, 0, 0.271146, 28.177604, 21.461885)" fill="none" stroke-linejoin="miter" d="M 181.255483 52.753 C 199.710171 44.555718 220.095326 50.174242 237.541561 58.774904 C 257.019108 68.945872 276.914443 83.741316 284.895628 106.978952 C 288.482839 116.45841 286.120178 127.522578 279.968615 134.956317 C 275.128041 139.551981 268.241748 138.269805 262.435941 137.621514 C 249.254021 134.480903 241.186398 121.443048 230.943398 112.914418 C 222.069012 104.227317 212.632775 94.819892 200.617779 92.414011 C 189.899365 90.440325 180.578379 98.33507 173.720899 106.503539 C 163.377054 120.693912 156.850923 137.722359 151.751033 154.938091 C 148.451951 169.935226 141.407187 184.255257 142.257169 200.087967 C 141.248716 185.479807 137.503034 171.260621 137.142872 156.594835 C 136.465768 137.664733 138.626739 118.633787 142.90546 100.33757 C 150.74258 80.715958 162.858421 61.310443 181.255483 52.753 Z M 181.255483 52.753 " stroke="#000000" stroke-width="0.1" stroke-opacity="1" stroke-miterlimit="10"/><path fill="#ffffff" d="M 77.324219 35.765625 C 82.328125 33.542969 87.855469 35.066406 92.585938 37.398438 C 97.867188 40.15625 103.261719 44.167969 105.425781 50.46875 C 106.398438 53.039062 105.757812 56.039062 104.089844 58.054688 C 102.777344 59.300781 100.910156 58.953125 99.335938 58.777344 C 95.761719 57.925781 93.574219 54.390625 90.796875 52.078125 C 88.390625 49.722656 85.832031 47.171875 82.574219 46.519531 C 79.667969 45.984375 77.140625 48.125 75.28125 50.339844 C 72.476562 54.1875 70.707031 58.804688 69.324219 63.472656 C 68.429688 67.539062 66.519531 71.421875 66.75 75.714844 C 66.476562 71.753906 65.460938 67.898438 65.363281 63.921875 C 65.179688 58.789062 65.765625 53.628906 66.925781 48.667969 C 69.050781 43.347656 72.335938 38.085938 77.324219 35.765625 Z M 77.324219 35.765625 " fill-opacity="1" fill-rule="nonzero"/><path stroke-linecap="butt" transform="matrix(0.271146, 0, 0, 0.271146, 28.177604, 21.461885)" fill="none" stroke-linejoin="miter" d="M 349.451019 65.286628 C 362.805817 63.572259 376.837719 69.392472 385.812949 80.571893 C 391.89248 88.898833 395.969511 99.372336 395.897478 110.206002 C 394.730554 123.373515 388.766276 136.382557 378.825811 143.945954 C 367.098945 153.194908 351.07895 155.110968 337.882624 148.714496 C 318.289825 140.430775 306.879901 112.381379 316.950023 91.203868 C 322.611766 76.782991 335.678434 67.40438 349.451019 65.286628 Z M 349.451019 65.286628 " stroke="#000000" stroke-width="0.1" stroke-opacity="1" stroke-miterlimit="10"/><path fill="#ffffff" d="M 122.929688 39.164062 C 126.550781 38.699219 130.355469 40.277344 132.789062 43.308594 C 134.4375 45.566406 135.542969 48.40625 135.523438 51.34375 C 135.207031 54.914062 133.589844 58.441406 130.894531 60.492188 C 127.714844 63 123.371094 63.519531 119.792969 61.785156 C 114.480469 59.539062 111.386719 51.933594 114.117188 46.191406 C 115.652344 42.28125 119.195312 39.738281 122.929688 39.164062 Z M 122.929688 39.164062 " fill-opacity="1" fill-rule="nonzero"/><path stroke-linecap="butt" transform="matrix(0.271146, 0, 0, 0.271146, 28.177604, 21.461885)" fill="none" stroke-linejoin="miter" d="M 488.473454 141.828203 C 489.26581 141.784984 490.058166 141.756171 490.864928 141.770577 C 490.533579 149.578884 492.363201 157.387191 491.196277 165.166684 C 489.352248 178.550295 484.497268 191.09833 479.253313 203.214171 C 467.728137 231.796608 445.931148 255.408812 419.509682 266.5162 C 407.379435 271.270335 392.987371 270.910173 382.052861 262.784924 C 364.376122 249.94876 350.473879 230.384774 344.394348 207.781022 C 340.547821 195.578742 340.418163 180.927362 347.030732 169.8776 C 350.34422 165.02262 354.810226 159.620193 360.788911 159.980355 C 366.969287 160.61424 372.486965 164.73449 376.21824 170.108103 C 385.006187 182.929862 386.850215 199.612554 394.082263 213.2987 C 400.147387 222.129866 409.943786 232.617776 420.763045 227.445854 C 433.815307 221.308697 444.807444 210.878413 455.425012 200.64982 C 468.837435 187.813655 478.172828 170.684362 485.635379 153.050843 C 487.133652 149.506852 488.170918 145.746763 488.473454 141.828203 Z M 488.473454 141.828203 " stroke="#000000" stroke-width="0.1" stroke-opacity="1" stroke-miterlimit="10"/><path fill="#ffffff" d="M 160.625 59.917969 C 160.839844 59.90625 161.054688 59.898438 161.273438 59.902344 C 161.183594 62.019531 161.679688 64.136719 161.363281 66.246094 C 160.863281 69.875 159.546875 73.277344 158.125 76.5625 C 155 84.3125 149.089844 90.714844 141.925781 93.726562 C 138.636719 95.015625 134.734375 94.917969 131.769531 92.714844 C 126.976562 89.234375 123.207031 83.929688 121.558594 77.800781 C 120.515625 74.492188 120.480469 70.519531 122.273438 67.523438 C 123.171875 66.207031 124.382812 64.742188 126.003906 64.839844 C 127.679688 65.011719 129.175781 66.128906 130.1875 67.585938 C 132.570312 71.0625 133.070312 75.585938 135.03125 79.296875 C 136.675781 81.691406 139.332031 84.535156 142.265625 83.132812 C 145.804688 81.46875 148.785156 78.640625 151.664062 75.867188 C 155.300781 72.386719 157.832031 67.742188 159.855469 62.960938 C 160.261719 62 160.542969 60.980469 160.625 59.917969 Z M 160.625 59.917969 " fill-opacity="1" fill-rule="nonzero"/><g clip-path="url(#40aab41c29)"><path stroke-linecap="butt" transform="matrix(0.271146, 0, 0, 0.271146, 28.177604, 21.461885)" fill="none" stroke-linejoin="miter" d="M 162.397414 223.815423 C 170.162501 216.496937 181.630051 217.21726 190.662908 220.862097 C 199.724578 225.155225 209.290474 228.468713 217.559787 234.56265 C 230.424765 243.725165 242.713484 253.996978 253.70562 265.795877 C 266.123997 276.960891 277.66358 289.422487 287.546418 303.396763 C 294.836092 312.933846 302.457114 324.070047 301.880856 337.28078 C 296.492836 356.54223 281.654172 370.617352 266.224843 380.024776 C 245.753249 391.607578 222.918994 396.188836 201.049973 403.291225 C 191.584922 406.691152 181.658864 407.930109 171.819245 409.111439 C 160.668638 409.774137 149.474811 412.324082 138.338609 410.134298 C 145.469812 404.371711 154.113694 401.807359 161.950814 397.543044 C 184.468126 386.738191 205.660043 372.879167 227.601097 360.734513 C 236.89327 355.735468 245.998159 349.353402 251.314146 339.168028 C 251.026017 336.935025 250.752294 334.702022 250.478571 332.469019 C 244.226163 325.438662 236.518702 320.410804 228.580737 316.160895 C 219.30297 324.675119 208.61337 331.15803 200.070333 340.680707 C 176.631006 360.071816 150.713767 375.285048 125.747355 392.068585 C 92.151467 413.073218 60.356388 437.549811 26.112209 457.315487 C 24.10971 458.107843 22.063991 458.727321 19.975053 459.173922 C 33.12816 443.240366 48.442237 429.683878 61.393654 413.534225 C 80.078845 391.766049 98.764037 369.997873 118.25599 349.122898 C 138.842836 327.081 158.853423 304.390809 177.927589 280.720979 C 169.888778 272.451666 159.487307 264.830643 157.052614 252.15295 C 154.718766 242.558241 156.08738 231.220349 162.397414 223.801017 Z M 162.397414 223.815423 " stroke="#000000" stroke-width="0.1" stroke-opacity="1" stroke-miterlimit="10"/></g><g clip-path="url(#ae1dcb7a25)"><path fill="#ffffff" d="M 72.210938 82.148438 C 74.316406 80.164062 77.425781 80.359375 79.875 81.347656 C 82.332031 82.511719 84.925781 83.410156 87.167969 85.0625 C 90.65625 87.546875 93.988281 90.332031 96.96875 93.53125 C 100.335938 96.558594 103.464844 99.9375 106.144531 103.726562 C 108.121094 106.3125 110.1875 109.332031 110.03125 112.914062 C 108.570312 118.136719 104.546875 121.953125 100.363281 124.503906 C 94.8125 127.644531 88.621094 128.886719 82.691406 130.8125 C 80.125 131.734375 77.433594 132.070312 74.765625 132.390625 C 71.742188 132.570312 68.707031 133.261719 65.6875 132.667969 C 67.621094 131.105469 69.964844 130.410156 72.089844 129.253906 C 78.195312 126.324219 83.941406 122.566406 89.890625 119.273438 C 92.410156 117.917969 94.878906 116.1875 96.320312 113.425781 C 96.242188 112.820312 96.167969 112.214844 96.09375 111.609375 C 94.398438 109.703125 92.308594 108.339844 90.15625 107.1875 C 87.640625 109.496094 84.742188 111.253906 82.425781 113.835938 C 76.070312 119.09375 69.042969 123.21875 62.273438 127.769531 C 53.164062 133.464844 44.542969 140.101562 35.257812 145.460938 C 34.714844 145.675781 34.160156 145.84375 33.59375 145.964844 C 37.160156 141.644531 41.3125 137.96875 44.824219 133.589844 C 49.890625 127.6875 54.957031 121.785156 60.242188 116.125 C 65.824219 110.148438 71.25 103.996094 76.421875 97.578125 C 74.242188 95.335938 71.421875 93.269531 70.761719 89.832031 C 70.128906 87.230469 70.5 84.15625 72.210938 82.144531 Z M 72.210938 82.148438 " fill-opacity="1" fill-rule="nonzero"/></g></g></g><g fill="#003060" fill-opacity="1"><g transform="translate(39.733005, 255.54738)"><g><path d="M 12.796875 -23.859375 C 15.835938 -23.859375 18.195312 -23.125 19.875 -21.65625 C 21.5625 -20.195312 22.40625 -18.140625 22.40625 -15.484375 C 22.40625 -12.671875 21.5625 -10.488281 19.875 -8.9375 C 18.195312 -7.382812 15.835938 -6.609375 12.796875 -6.609375 L 8.546875 -6.609375 L 8.546875 0 L 2.3125 0 L 2.3125 -23.859375 Z M 12.5 -11.578125 C 13.769531 -11.578125 14.75 -11.894531 15.4375 -12.53125 C 16.132812 -13.164062 16.484375 -14.082031 16.484375 -15.28125 C 16.484375 -16.445312 16.132812 -17.335938 15.4375 -17.953125 C 14.75 -18.578125 13.769531 -18.890625 12.5 -18.890625 L 8.546875 -18.890625 L 8.546875 -11.578125 Z M 12.5 -11.578125 "/></g></g></g><g fill="#003060" fill-opacity="1"><g transform="translate(62.882216, 255.54738)"><g><path d="M 14.609375 -12.59375 C 12.222656 -13.84375 10.269531 -14.46875 8.75 -14.46875 C 8.226562 -14.46875 7.804688 -14.367188 7.484375 -14.171875 C 7.171875 -13.984375 7.015625 -13.695312 7.015625 -13.3125 C 7.015625 -12.90625 7.265625 -12.578125 7.765625 -12.328125 C 8.265625 -12.078125 9.054688 -11.804688 10.140625 -11.515625 C 11.460938 -11.117188 12.5625 -10.734375 13.4375 -10.359375 C 14.3125 -9.992188 15.066406 -9.429688 15.703125 -8.671875 C 16.335938 -7.910156 16.65625 -6.914062 16.65625 -5.6875 C 16.65625 -3.820312 15.929688 -2.363281 14.484375 -1.3125 C 13.046875 -0.257812 11.171875 0.265625 8.859375 0.265625 C 7.285156 0.265625 5.785156 0.046875 4.359375 -0.390625 C 2.929688 -0.835938 1.660156 -1.488281 0.546875 -2.34375 L 2.453125 -6.265625 C 3.492188 -5.535156 4.585938 -4.972656 5.734375 -4.578125 C 6.878906 -4.179688 7.960938 -3.984375 8.984375 -3.984375 C 9.578125 -3.984375 10.046875 -4.078125 10.390625 -4.265625 C 10.742188 -4.460938 10.921875 -4.742188 10.921875 -5.109375 C 10.921875 -5.554688 10.664062 -5.90625 10.15625 -6.15625 C 9.644531 -6.40625 8.847656 -6.679688 7.765625 -6.984375 C 6.472656 -7.367188 5.40625 -7.75 4.5625 -8.125 C 3.71875 -8.5 2.984375 -9.054688 2.359375 -9.796875 C 1.742188 -10.546875 1.4375 -11.523438 1.4375 -12.734375 C 1.4375 -14.597656 2.140625 -16.054688 3.546875 -17.109375 C 4.953125 -18.160156 6.765625 -18.6875 8.984375 -18.6875 C 10.328125 -18.6875 11.648438 -18.503906 12.953125 -18.140625 C 14.253906 -17.785156 15.488281 -17.253906 16.65625 -16.546875 Z M 14.609375 -12.59375 "/></g></g></g><g fill="#003060" fill-opacity="1"><g transform="translate(80.482426, 255.54738)"><g><path d="M 2.3125 0 L 2.3125 -18.421875 L 8.34375 -18.421875 L 8.34375 0 Z M 5.34375 -26.890625 C 6.269531 -26.890625 7.035156 -26.585938 7.640625 -25.984375 C 8.242188 -25.390625 8.546875 -24.613281 8.546875 -23.65625 C 8.546875 -22.726562 8.242188 -21.957031 7.640625 -21.34375 C 7.035156 -20.726562 6.269531 -20.421875 5.34375 -20.421875 C 4.40625 -20.421875 3.632812 -20.726562 3.03125 -21.34375 C 2.4375 -21.957031 2.140625 -22.726562 2.140625 -23.65625 C 2.140625 -24.613281 2.4375 -25.390625 3.03125 -25.984375 C 3.632812 -26.585938 4.40625 -26.890625 5.34375 -26.890625 Z M 5.34375 -26.890625 "/></g></g></g><g fill="#003060" fill-opacity="1"><g transform="translate(91.13787, 255.54738)"><g><path d="M 14.203125 -11.71875 C 13.335938 -12.988281 12.132812 -13.625 10.59375 -13.625 C 9.5 -13.625 8.609375 -13.207031 7.921875 -12.375 C 7.242188 -11.550781 6.90625 -10.476562 6.90625 -9.15625 C 6.90625 -7.820312 7.242188 -6.742188 7.921875 -5.921875 C 8.609375 -5.109375 9.5 -4.703125 10.59375 -4.703125 C 12.269531 -4.703125 13.472656 -5.394531 14.203125 -6.78125 L 18.65625 -4.21875 C 17.925781 -2.8125 16.832031 -1.722656 15.375 -0.953125 C 13.925781 -0.179688 12.226562 0.203125 10.28125 0.203125 C 8.394531 0.203125 6.738281 -0.179688 5.3125 -0.953125 C 3.882812 -1.722656 2.773438 -2.8125 1.984375 -4.21875 C 1.203125 -5.625 0.8125 -7.257812 0.8125 -9.125 C 0.8125 -11.007812 1.207031 -12.671875 2 -14.109375 C 2.800781 -15.554688 3.921875 -16.671875 5.359375 -17.453125 C 6.804688 -18.234375 8.46875 -18.625 10.34375 -18.625 C 12.1875 -18.625 13.820312 -18.242188 15.25 -17.484375 C 16.675781 -16.722656 17.789062 -15.648438 18.59375 -14.265625 Z M 14.203125 -11.71875 "/></g></g></g><g fill="#003060" fill-opacity="1"><g transform="translate(110.27001, 255.54738)"><g><path d="M 10.859375 -18.625 C 12.859375 -18.625 14.617188 -18.234375 16.140625 -17.453125 C 17.660156 -16.671875 18.835938 -15.566406 19.671875 -14.140625 C 20.515625 -12.722656 20.9375 -11.085938 20.9375 -9.234375 C 20.9375 -7.347656 20.515625 -5.691406 19.671875 -4.265625 C 18.835938 -2.847656 17.660156 -1.75 16.140625 -0.96875 C 14.617188 -0.1875 12.859375 0.203125 10.859375 0.203125 C 8.859375 0.203125 7.097656 -0.1875 5.578125 -0.96875 C 4.054688 -1.75 2.878906 -2.847656 2.046875 -4.265625 C 1.222656 -5.691406 0.8125 -7.347656 0.8125 -9.234375 C 0.8125 -11.085938 1.222656 -12.722656 2.046875 -14.140625 C 2.878906 -15.566406 4.054688 -16.671875 5.578125 -17.453125 C 7.097656 -18.234375 8.859375 -18.625 10.859375 -18.625 Z M 10.859375 -13.71875 C 9.679688 -13.71875 8.726562 -13.296875 8 -12.453125 C 7.269531 -11.617188 6.90625 -10.519531 6.90625 -9.15625 C 6.90625 -7.769531 7.269531 -6.65625 8 -5.8125 C 8.726562 -4.976562 9.679688 -4.5625 10.859375 -4.5625 C 12.066406 -4.5625 13.03125 -4.976562 13.75 -5.8125 C 14.476562 -6.65625 14.84375 -7.769531 14.84375 -9.15625 C 14.84375 -10.519531 14.472656 -11.617188 13.734375 -12.453125 C 12.992188 -13.296875 12.035156 -13.71875 10.859375 -13.71875 Z M 10.859375 -13.71875 "/></g></g></g><g fill="#003060" fill-opacity="1"><g transform="translate(131.989418, 255.54738)"><g><path d="M 2.484375 0 L 2.484375 -25.265625 L 8.546875 -25.265625 L 8.546875 0 Z M 2.484375 0 "/></g></g></g><g fill="#003060" fill-opacity="1"><g transform="translate(143.019336, 255.54738)"><g><path d="M 10.859375 -18.625 C 12.859375 -18.625 14.617188 -18.234375 16.140625 -17.453125 C 17.660156 -16.671875 18.835938 -15.566406 19.671875 -14.140625 C 20.515625 -12.722656 20.9375 -11.085938 20.9375 -9.234375 C 20.9375 -7.347656 20.515625 -5.691406 19.671875 -4.265625 C 18.835938 -2.847656 17.660156 -1.75 16.140625 -0.96875 C 14.617188 -0.1875 12.859375 0.203125 10.859375 0.203125 C 8.859375 0.203125 7.097656 -0.1875 5.578125 -0.96875 C 4.054688 -1.75 2.878906 -2.847656 2.046875 -4.265625 C 1.222656 -5.691406 0.8125 -7.347656 0.8125 -9.234375 C 0.8125 -11.085938 1.222656 -12.722656 2.046875 -14.140625 C 2.878906 -15.566406 4.054688 -16.671875 5.578125 -17.453125 C 7.097656 -18.234375 8.859375 -18.625 10.859375 -18.625 Z M 10.859375 -13.71875 C 9.679688 -13.71875 8.726562 -13.296875 8 -12.453125 C 7.269531 -11.617188 6.90625 -10.519531 6.90625 -9.15625 C 6.90625 -7.769531 7.269531 -6.65625 8 -5.8125 C 8.726562 -4.976562 9.679688 -4.5625 10.859375 -4.5625 C 12.066406 -4.5625 13.03125 -4.976562 13.75 -5.8125 C 14.476562 -6.65625 14.84375 -7.769531 14.84375 -9.15625 C 14.84375 -10.519531 14.472656 -11.617188 13.734375 -12.453125 C 12.992188 -13.296875 12.035156 -13.71875 10.859375 -13.71875 Z M 10.859375 -13.71875 "/></g></g></g><g fill="#003060" fill-opacity="1"><g transform="translate(164.738745, 255.54738)"><g><path d="M 13.921875 -18.421875 L 19.953125 -18.421875 L 19.953125 -1.640625 C 19.953125 0.0664062 19.53125 1.5625 18.6875 2.84375 C 17.851562 4.125 16.679688 5.109375 15.171875 5.796875 C 13.660156 6.492188 11.914062 6.84375 9.9375 6.84375 C 8.394531 6.84375 6.910156 6.625 5.484375 6.1875 C 4.054688 5.757812 2.796875 5.179688 1.703125 4.453125 L 3.8125 0.265625 C 4.65625 0.835938 5.5625 1.28125 6.53125 1.59375 C 7.507812 1.914062 8.5 2.078125 9.5 2.078125 C 10.863281 2.078125 11.941406 1.757812 12.734375 1.125 C 13.523438 0.488281 13.921875 -0.375 13.921875 -1.46875 L 13.921875 -3.4375 C 12.703125 -1.820312 10.957031 -1.015625 8.6875 -1.015625 C 7.164062 -1.015625 5.804688 -1.382812 4.609375 -2.125 C 3.421875 -2.863281 2.488281 -3.90625 1.8125 -5.25 C 1.144531 -6.601562 0.8125 -8.15625 0.8125 -9.90625 C 0.8125 -11.632812 1.132812 -13.15625 1.78125 -14.46875 C 2.425781 -15.78125 3.335938 -16.800781 4.515625 -17.53125 C 5.703125 -18.257812 7.046875 -18.625 8.546875 -18.625 C 9.679688 -18.625 10.707031 -18.410156 11.625 -17.984375 C 12.539062 -17.566406 13.304688 -16.960938 13.921875 -16.171875 Z M 10.21875 -5.453125 C 11.320312 -5.453125 12.210938 -5.847656 12.890625 -6.640625 C 13.578125 -7.429688 13.921875 -8.460938 13.921875 -9.734375 C 13.921875 -11.023438 13.578125 -12.066406 12.890625 -12.859375 C 12.210938 -13.660156 11.320312 -14.0625 10.21875 -14.0625 C 9.101562 -14.0625 8.195312 -13.65625 7.5 -12.84375 C 6.8125 -12.039062 6.46875 -11.003906 6.46875 -9.734375 C 6.46875 -8.460938 6.8125 -7.429688 7.5 -6.640625 C 8.195312 -5.847656 9.101562 -5.453125 10.21875 -5.453125 Z M 10.21875 -5.453125 "/></g></g></g><g fill="#003060" fill-opacity="1"><g transform="translate(186.79858, 255.54738)"><g><path d="M 2.3125 0 L 2.3125 -18.421875 L 8.34375 -18.421875 L 8.34375 0 Z M 2.28125 -20.734375 L 6.375 -26.21875 L 11.375 -24.3125 L 6.4375 -20.390625 Z M 2.28125 -20.734375 "/></g></g></g><g fill="#003060" fill-opacity="1"><g transform="translate(197.454024, 255.54738)"><g><path d="M 10.625 -18.65625 C 13.164062 -18.65625 15.140625 -18.070312 16.546875 -16.90625 C 17.953125 -15.738281 18.664062 -14.097656 18.6875 -11.984375 L 18.6875 0 L 12.734375 0 L 12.734375 -2.078125 C 11.503906 -0.515625 9.65625 0.265625 7.1875 0.265625 C 5.226562 0.265625 3.6875 -0.257812 2.5625 -1.3125 C 1.445312 -2.363281 0.890625 -3.753906 0.890625 -5.484375 C 0.890625 -7.234375 1.492188 -8.59375 2.703125 -9.5625 C 3.921875 -10.539062 5.664062 -11.039062 7.9375 -11.0625 L 12.734375 -11.0625 L 12.734375 -11.265625 C 12.734375 -12.148438 12.429688 -12.832031 11.828125 -13.3125 C 11.222656 -13.789062 10.359375 -14.03125 9.234375 -14.03125 C 8.453125 -14.03125 7.578125 -13.90625 6.609375 -13.65625 C 5.648438 -13.40625 4.6875 -13.039062 3.71875 -12.5625 L 2.046875 -16.65625 C 3.546875 -17.332031 4.976562 -17.832031 6.34375 -18.15625 C 7.71875 -18.488281 9.144531 -18.65625 10.625 -18.65625 Z M 9.0625 -3.84375 C 9.96875 -3.84375 10.757812 -4.0625 11.4375 -4.5 C 12.125 -4.945312 12.554688 -5.523438 12.734375 -6.234375 L 12.734375 -7.828125 L 9.125 -7.828125 C 7.425781 -7.828125 6.578125 -7.191406 6.578125 -5.921875 C 6.578125 -5.285156 6.796875 -4.78125 7.234375 -4.40625 C 7.679688 -4.03125 8.289062 -3.84375 9.0625 -3.84375 Z M 9.0625 -3.84375 "/></g></g></g><g fill="#003060" fill-opacity="1"><g transform="translate(217.913839, 255.54738)"><g/></g></g><g fill="#003060" fill-opacity="1"><g transform="translate(227.105436, 255.54738)"><g><path d="M 13.953125 -18.625 C 15.660156 -18.625 17.160156 -18.234375 18.453125 -17.453125 C 19.742188 -16.671875 20.742188 -15.554688 21.453125 -14.109375 C 22.171875 -12.671875 22.53125 -11.007812 22.53125 -9.125 C 22.53125 -7.257812 22.1875 -5.625 21.5 -4.21875 C 20.8125 -2.8125 19.820312 -1.722656 18.53125 -0.953125 C 17.25 -0.179688 15.769531 0.203125 14.09375 0.203125 C 12.9375 0.203125 11.882812 -0.015625 10.9375 -0.453125 C 10 -0.898438 9.203125 -1.546875 8.546875 -2.390625 L 8.546875 6.609375 L 2.484375 6.609375 L 2.484375 -18.421875 L 8.546875 -18.421875 L 8.546875 -16.03125 C 9.878906 -17.757812 11.679688 -18.625 13.953125 -18.625 Z M 12.46875 -4.703125 C 13.644531 -4.703125 14.597656 -5.117188 15.328125 -5.953125 C 16.066406 -6.796875 16.4375 -7.898438 16.4375 -9.265625 C 16.4375 -10.617188 16.066406 -11.722656 15.328125 -12.578125 C 14.597656 -13.429688 13.644531 -13.859375 12.46875 -13.859375 C 11.300781 -13.859375 10.351562 -13.429688 9.625 -12.578125 C 8.90625 -11.722656 8.546875 -10.617188 8.546875 -9.265625 C 8.546875 -7.898438 8.90625 -6.796875 9.625 -5.953125 C 10.351562 -5.117188 11.300781 -4.703125 12.46875 -4.703125 Z M 12.46875 -4.703125 "/></g></g></g><g fill="#003060" fill-opacity="1"><g transform="translate(250.458912, 255.54738)"><g><path d="M 10.625 -18.65625 C 13.164062 -18.65625 15.140625 -18.070312 16.546875 -16.90625 C 17.953125 -15.738281 18.664062 -14.097656 18.6875 -11.984375 L 18.6875 0 L 12.734375 0 L 12.734375 -2.078125 C 11.503906 -0.515625 9.65625 0.265625 7.1875 0.265625 C 5.226562 0.265625 3.6875 -0.257812 2.5625 -1.3125 C 1.445312 -2.363281 0.890625 -3.753906 0.890625 -5.484375 C 0.890625 -7.234375 1.492188 -8.59375 2.703125 -9.5625 C 3.921875 -10.539062 5.664062 -11.039062 7.9375 -11.0625 L 12.734375 -11.0625 L 12.734375 -11.265625 C 12.734375 -12.148438 12.429688 -12.832031 11.828125 -13.3125 C 11.222656 -13.789062 10.359375 -14.03125 9.234375 -14.03125 C 8.453125 -14.03125 7.578125 -13.90625 6.609375 -13.65625 C 5.648438 -13.40625 4.6875 -13.039062 3.71875 -12.5625 L 2.046875 -16.65625 C 3.546875 -17.332031 4.976562 -17.832031 6.34375 -18.15625 C 7.71875 -18.488281 9.144531 -18.65625 10.625 -18.65625 Z M 9.0625 -3.84375 C 9.96875 -3.84375 10.757812 -4.0625 11.4375 -4.5 C 12.125 -4.945312 12.554688 -5.523438 12.734375 -6.234375 L 12.734375 -7.828125 L 9.125 -7.828125 C 7.425781 -7.828125 6.578125 -7.191406 6.578125 -5.921875 C 6.578125 -5.285156 6.796875 -4.78125 7.234375 -4.40625 C 7.679688 -4.03125 8.289062 -3.84375 9.0625 -3.84375 Z M 9.0625 -3.84375 "/></g></g></g><g fill="#003060" fill-opacity="1"><g transform="translate(270.918703, 255.54738)"><g><path d="M 8.375 -15.359375 C 9.007812 -16.421875 9.832031 -17.234375 10.84375 -17.796875 C 11.851562 -18.367188 13.003906 -18.65625 14.296875 -18.65625 L 14.296875 -13.109375 C 14.097656 -13.128906 13.789062 -13.140625 13.375 -13.140625 C 11.945312 -13.140625 10.789062 -12.804688 9.90625 -12.140625 C 9.019531 -11.472656 8.507812 -10.554688 8.375 -9.390625 L 8.375 0 L 2.3125 0 L 2.3125 -18.421875 L 8.375 -18.421875 Z M 8.375 -15.359375 "/></g></g></g><g fill="#003060" fill-opacity="1"><g transform="translate(285.557184, 255.54738)"><g><path d="M 10.625 -18.65625 C 13.164062 -18.65625 15.140625 -18.070312 16.546875 -16.90625 C 17.953125 -15.738281 18.664062 -14.097656 18.6875 -11.984375 L 18.6875 0 L 12.734375 0 L 12.734375 -2.078125 C 11.503906 -0.515625 9.65625 0.265625 7.1875 0.265625 C 5.226562 0.265625 3.6875 -0.257812 2.5625 -1.3125 C 1.445312 -2.363281 0.890625 -3.753906 0.890625 -5.484375 C 0.890625 -7.234375 1.492188 -8.59375 2.703125 -9.5625 C 3.921875 -10.539062 5.664062 -11.039062 7.9375 -11.0625 L 12.734375 -11.0625 L 12.734375 -11.265625 C 12.734375 -12.148438 12.429688 -12.832031 11.828125 -13.3125 C 11.222656 -13.789062 10.359375 -14.03125 9.234375 -14.03125 C 8.453125 -14.03125 7.578125 -13.90625 6.609375 -13.65625 C 5.648438 -13.40625 4.6875 -13.039062 3.71875 -12.5625 L 2.046875 -16.65625 C 3.546875 -17.332031 4.976562 -17.832031 6.34375 -18.15625 C 7.71875 -18.488281 9.144531 -18.65625 10.625 -18.65625 Z M 9.0625 -3.84375 C 9.96875 -3.84375 10.757812 -4.0625 11.4375 -4.5 C 12.125 -4.945312 12.554688 -5.523438 12.734375 -6.234375 L 12.734375 -7.828125 L 9.125 -7.828125 C 7.425781 -7.828125 6.578125 -7.191406 6.578125 -5.921875 C 6.578125 -5.285156 6.796875 -4.78125 7.234375 -4.40625 C 7.679688 -4.03125 8.289062 -3.84375 9.0625 -3.84375 Z M 9.0625 -3.84375 "/></g></g></g><g fill="#003060" fill-opacity="1"><g transform="translate(306.016999, 255.54738)"><g/></g></g><g fill="#003060" fill-opacity="1"><g transform="translate(315.208595, 255.54738)"><g><path d="M 2.484375 0 L 2.484375 -25.265625 L 8.546875 -25.265625 L 8.546875 0 Z M 2.484375 0 "/></g></g></g><g fill="#003060" fill-opacity="1"><g transform="translate(326.238524, 255.54738)"><g><path d="M 10.625 -18.65625 C 13.164062 -18.65625 15.140625 -18.070312 16.546875 -16.90625 C 17.953125 -15.738281 18.664062 -14.097656 18.6875 -11.984375 L 18.6875 0 L 12.734375 0 L 12.734375 -2.078125 C 11.503906 -0.515625 9.65625 0.265625 7.1875 0.265625 C 5.226562 0.265625 3.6875 -0.257812 2.5625 -1.3125 C 1.445312 -2.363281 0.890625 -3.753906 0.890625 -5.484375 C 0.890625 -7.234375 1.492188 -8.59375 2.703125 -9.5625 C 3.921875 -10.539062 5.664062 -11.039062 7.9375 -11.0625 L 12.734375 -11.0625 L 12.734375 -11.265625 C 12.734375 -12.148438 12.429688 -12.832031 11.828125 -13.3125 C 11.222656 -13.789062 10.359375 -14.03125 9.234375 -14.03125 C 8.453125 -14.03125 7.578125 -13.90625 6.609375 -13.65625 C 5.648438 -13.40625 4.6875 -13.039062 3.71875 -12.5625 L 2.046875 -16.65625 C 3.546875 -17.332031 4.976562 -17.832031 6.34375 -18.15625 C 7.71875 -18.488281 9.144531 -18.65625 10.625 -18.65625 Z M 9.0625 -3.84375 C 9.96875 -3.84375 10.757812 -4.0625 11.4375 -4.5 C 12.125 -4.945312 12.554688 -5.523438 12.734375 -6.234375 L 12.734375 -7.828125 L 9.125 -7.828125 C 7.425781 -7.828125 6.578125 -7.191406 6.578125 -5.921875 C 6.578125 -5.285156 6.796875 -4.78125 7.234375 -4.40625 C 7.679688 -4.03125 8.289062 -3.84375 9.0625 -3.84375 Z M 9.0625 -3.84375 "/></g></g></g><g fill="#003060" fill-opacity="1"><g transform="translate(77.221284, 292.297378)"><g><path d="M 6.703125 0 L -0.171875 -18.421875 L 6.0625 -18.421875 L 9.90625 -5.625 L 13.78125 -18.421875 L 19.84375 -18.421875 L 12.9375 0 Z M 6.703125 0 "/></g></g></g><g fill="#003060" fill-opacity="1"><g transform="translate(96.795978, 292.297378)"><g><path d="M 2.3125 0 L 2.3125 -18.421875 L 8.34375 -18.421875 L 8.34375 0 Z M 5.34375 -26.890625 C 6.269531 -26.890625 7.035156 -26.585938 7.640625 -25.984375 C 8.242188 -25.390625 8.546875 -24.613281 8.546875 -23.65625 C 8.546875 -22.726562 8.242188 -21.957031 7.640625 -21.34375 C 7.035156 -20.726562 6.269531 -20.421875 5.34375 -20.421875 C 4.40625 -20.421875 3.632812 -20.726562 3.03125 -21.34375 C 2.4375 -21.957031 2.140625 -22.726562 2.140625 -23.65625 C 2.140625 -24.613281 2.4375 -25.390625 3.03125 -25.984375 C 3.632812 -26.585938 4.40625 -26.890625 5.34375 -26.890625 Z M 5.34375 -26.890625 "/></g></g></g><g fill="#003060" fill-opacity="1"><g transform="translate(107.451422, 292.297378)"><g><path d="M 14.84375 -25.265625 L 20.90625 -25.265625 L 20.90625 0 L 14.84375 0 L 14.84375 -2.390625 C 14.207031 -1.523438 13.429688 -0.867188 12.515625 -0.421875 C 11.597656 0.015625 10.554688 0.234375 9.390625 0.234375 C 7.691406 0.234375 6.195312 -0.160156 4.90625 -0.953125 C 3.613281 -1.742188 2.609375 -2.859375 1.890625 -4.296875 C 1.171875 -5.742188 0.8125 -7.410156 0.8125 -9.296875 C 0.8125 -11.160156 1.160156 -12.796875 1.859375 -14.203125 C 2.566406 -15.609375 3.554688 -16.695312 4.828125 -17.46875 C 6.097656 -18.238281 7.578125 -18.625 9.265625 -18.625 C 10.441406 -18.625 11.5 -18.394531 12.4375 -17.9375 C 13.382812 -17.488281 14.1875 -16.84375 14.84375 -16 Z M 10.890625 -4.53125 C 12.078125 -4.53125 13.03125 -4.953125 13.75 -5.796875 C 14.476562 -6.648438 14.84375 -7.757812 14.84375 -9.125 C 14.84375 -10.507812 14.476562 -11.617188 13.75 -12.453125 C 13.03125 -13.296875 12.078125 -13.71875 10.890625 -13.71875 C 9.710938 -13.71875 8.753906 -13.289062 8.015625 -12.4375 C 7.273438 -11.59375 6.90625 -10.488281 6.90625 -9.125 C 6.90625 -7.757812 7.273438 -6.648438 8.015625 -5.796875 C 8.753906 -4.953125 9.710938 -4.53125 10.890625 -4.53125 Z M 10.890625 -4.53125 "/></g></g></g><g fill="#003060" fill-opacity="1"><g transform="translate(130.838933, 292.297378)"><g><path d="M 10.625 -18.65625 C 13.164062 -18.65625 15.140625 -18.070312 16.546875 -16.90625 C 17.953125 -15.738281 18.664062 -14.097656 18.6875 -11.984375 L 18.6875 0 L 12.734375 0 L 12.734375 -2.078125 C 11.503906 -0.515625 9.65625 0.265625 7.1875 0.265625 C 5.226562 0.265625 3.6875 -0.257812 2.5625 -1.3125 C 1.445312 -2.363281 0.890625 -3.753906 0.890625 -5.484375 C 0.890625 -7.234375 1.492188 -8.59375 2.703125 -9.5625 C 3.921875 -10.539062 5.664062 -11.039062 7.9375 -11.0625 L 12.734375 -11.0625 L 12.734375 -11.265625 C 12.734375 -12.148438 12.429688 -12.832031 11.828125 -13.3125 C 11.222656 -13.789062 10.359375 -14.03125 9.234375 -14.03125 C 8.453125 -14.03125 7.578125 -13.90625 6.609375 -13.65625 C 5.648438 -13.40625 4.6875 -13.039062 3.71875 -12.5625 L 2.046875 -16.65625 C 3.546875 -17.332031 4.976562 -17.832031 6.34375 -18.15625 C 7.71875 -18.488281 9.144531 -18.65625 10.625 -18.65625 Z M 9.0625 -3.84375 C 9.96875 -3.84375 10.757812 -4.0625 11.4375 -4.5 C 12.125 -4.945312 12.554688 -5.523438 12.734375 -6.234375 L 12.734375 -7.828125 L 9.125 -7.828125 C 7.425781 -7.828125 6.578125 -7.191406 6.578125 -5.921875 C 6.578125 -5.285156 6.796875 -4.78125 7.234375 -4.40625 C 7.679688 -4.03125 8.289062 -3.84375 9.0625 -3.84375 Z M 9.0625 -3.84375 "/></g></g></g><g fill="#003060" fill-opacity="1"><g transform="translate(151.298748, 292.297378)"><g/></g></g><g fill="#003060" fill-opacity="1"><g transform="translate(160.490345, 292.297378)"><g><path d="M 12.25 1.796875 C 11.550781 3.523438 10.609375 4.800781 9.421875 5.625 C 8.242188 6.457031 6.78125 6.875 5.03125 6.875 C 4.007812 6.875 3.054688 6.71875 2.171875 6.40625 C 1.285156 6.101562 0.425781 5.625 -0.40625 4.96875 L 2.109375 0.78125 C 2.535156 1.144531 2.941406 1.40625 3.328125 1.5625 C 3.722656 1.71875 4.132812 1.796875 4.5625 1.796875 C 5.5625 1.796875 6.300781 1.332031 6.78125 0.40625 L 7.21875 -0.4375 L -0.40625 -18.421875 L 5.828125 -18.421875 L 10.21875 -6.4375 L 14.125 -18.421875 L 20.15625 -18.421875 Z M 12.25 1.796875 "/></g></g></g><g fill="#003060" fill-opacity="1"><g transform="translate(180.371432, 292.297378)"><g/></g></g><g fill="#003060" fill-opacity="1"><g transform="translate(189.563028, 292.297378)"><g><path d="M 13.953125 -18.625 C 15.660156 -18.625 17.160156 -18.234375 18.453125 -17.453125 C 19.742188 -16.671875 20.742188 -15.554688 21.453125 -14.109375 C 22.171875 -12.671875 22.53125 -11.007812 22.53125 -9.125 C 22.53125 -7.257812 22.1875 -5.625 21.5 -4.21875 C 20.8125 -2.8125 19.820312 -1.722656 18.53125 -0.953125 C 17.25 -0.179688 15.769531 0.203125 14.09375 0.203125 C 12.9375 0.203125 11.882812 -0.015625 10.9375 -0.453125 C 10 -0.898438 9.203125 -1.546875 8.546875 -2.390625 L 8.546875 6.609375 L 2.484375 6.609375 L 2.484375 -18.421875 L 8.546875 -18.421875 L 8.546875 -16.03125 C 9.878906 -17.757812 11.679688 -18.625 13.953125 -18.625 Z M 12.46875 -4.703125 C 13.644531 -4.703125 14.597656 -5.117188 15.328125 -5.953125 C 16.066406 -6.796875 16.4375 -7.898438 16.4375 -9.265625 C 16.4375 -10.617188 16.066406 -11.722656 15.328125 -12.578125 C 14.597656 -13.429688 13.644531 -13.859375 12.46875 -13.859375 C 11.300781 -13.859375 10.351562 -13.429688 9.625 -12.578125 C 8.90625 -11.722656 8.546875 -10.617188 8.546875 -9.265625 C 8.546875 -7.898438 8.90625 -6.796875 9.625 -5.953125 C 10.351562 -5.117188 11.300781 -4.703125 12.46875 -4.703125 Z M 12.46875 -4.703125 "/></g></g></g><g fill="#003060" fill-opacity="1"><g transform="translate(212.916493, 292.297378)"><g><path d="M 10.625 -18.65625 C 13.164062 -18.65625 15.140625 -18.070312 16.546875 -16.90625 C 17.953125 -15.738281 18.664062 -14.097656 18.6875 -11.984375 L 18.6875 0 L 12.734375 0 L 12.734375 -2.078125 C 11.503906 -0.515625 9.65625 0.265625 7.1875 0.265625 C 5.226562 0.265625 3.6875 -0.257812 2.5625 -1.3125 C 1.445312 -2.363281 0.890625 -3.753906 0.890625 -5.484375 C 0.890625 -7.234375 1.492188 -8.59375 2.703125 -9.5625 C 3.921875 -10.539062 5.664062 -11.039062 7.9375 -11.0625 L 12.734375 -11.0625 L 12.734375 -11.265625 C 12.734375 -12.148438 12.429688 -12.832031 11.828125 -13.3125 C 11.222656 -13.789062 10.359375 -14.03125 9.234375 -14.03125 C 8.453125 -14.03125 7.578125 -13.90625 6.609375 -13.65625 C 5.648438 -13.40625 4.6875 -13.039062 3.71875 -12.5625 L 2.046875 -16.65625 C 3.546875 -17.332031 4.976562 -17.832031 6.34375 -18.15625 C 7.71875 -18.488281 9.144531 -18.65625 10.625 -18.65625 Z M 9.0625 -3.84375 C 9.96875 -3.84375 10.757812 -4.0625 11.4375 -4.5 C 12.125 -4.945312 12.554688 -5.523438 12.734375 -6.234375 L 12.734375 -7.828125 L 9.125 -7.828125 C 7.425781 -7.828125 6.578125 -7.191406 6.578125 -5.921875 C 6.578125 -5.285156 6.796875 -4.78125 7.234375 -4.40625 C 7.679688 -4.03125 8.289062 -3.84375 9.0625 -3.84375 Z M 9.0625 -3.84375 "/></g></g></g><g fill="#003060" fill-opacity="1"><g transform="translate(233.376308, 292.297378)"><g><path d="M 8.375 -15.359375 C 9.007812 -16.421875 9.832031 -17.234375 10.84375 -17.796875 C 11.851562 -18.367188 13.003906 -18.65625 14.296875 -18.65625 L 14.296875 -13.109375 C 14.097656 -13.128906 13.789062 -13.140625 13.375 -13.140625 C 11.945312 -13.140625 10.789062 -12.804688 9.90625 -12.140625 C 9.019531 -11.472656 8.507812 -10.554688 8.375 -9.390625 L 8.375 0 L 2.3125 0 L 2.3125 -18.421875 L 8.375 -18.421875 Z M 8.375 -15.359375 "/></g></g></g><g fill="#003060" fill-opacity="1"><g transform="translate(248.014777, 292.297378)"><g><path d="M 10.625 -18.65625 C 13.164062 -18.65625 15.140625 -18.070312 16.546875 -16.90625 C 17.953125 -15.738281 18.664062 -14.097656 18.6875 -11.984375 L 18.6875 0 L 12.734375 0 L 12.734375 -2.078125 C 11.503906 -0.515625 9.65625 0.265625 7.1875 0.265625 C 5.226562 0.265625 3.6875 -0.257812 2.5625 -1.3125 C 1.445312 -2.363281 0.890625 -3.753906 0.890625 -5.484375 C 0.890625 -7.234375 1.492188 -8.59375 2.703125 -9.5625 C 3.921875 -10.539062 5.664062 -11.039062 7.9375 -11.0625 L 12.734375 -11.0625 L 12.734375 -11.265625 C 12.734375 -12.148438 12.429688 -12.832031 11.828125 -13.3125 C 11.222656 -13.789062 10.359375 -14.03125 9.234375 -14.03125 C 8.453125 -14.03125 7.578125 -13.90625 6.609375 -13.65625 C 5.648438 -13.40625 4.6875 -13.039062 3.71875 -12.5625 L 2.046875 -16.65625 C 3.546875 -17.332031 4.976562 -17.832031 6.34375 -18.15625 C 7.71875 -18.488281 9.144531 -18.65625 10.625 -18.65625 Z M 9.0625 -3.84375 C 9.96875 -3.84375 10.757812 -4.0625 11.4375 -4.5 C 12.125 -4.945312 12.554688 -5.523438 12.734375 -6.234375 L 12.734375 -7.828125 L 9.125 -7.828125 C 7.425781 -7.828125 6.578125 -7.191406 6.578125 -5.921875 C 6.578125 -5.285156 6.796875 -4.78125 7.234375 -4.40625 C 7.679688 -4.03125 8.289062 -3.84375 9.0625 -3.84375 Z M 9.0625 -3.84375 "/></g></g></g><g fill="#003060" fill-opacity="1"><g transform="translate(268.474592, 292.297378)"><g/></g></g><g fill="#003060" fill-opacity="1"><g transform="translate(277.666188, 292.297378)"><g><path d="M 10.421875 -18.625 C 13.410156 -18.625 15.710938 -17.738281 17.328125 -15.96875 C 18.941406 -14.195312 19.75 -11.769531 19.75 -8.6875 C 19.75 -8.207031 19.738281 -7.84375 19.71875 -7.59375 L 6.90625 -7.59375 C 7.207031 -6.550781 7.71875 -5.75 8.4375 -5.1875 C 9.164062 -4.632812 10.050781 -4.359375 11.09375 -4.359375 C 11.894531 -4.359375 12.660156 -4.515625 13.390625 -4.828125 C 14.128906 -5.148438 14.804688 -5.617188 15.421875 -6.234375 L 18.59375 -3.0625 C 17.632812 -2 16.476562 -1.1875 15.125 -0.625 C 13.78125 -0.0703125 12.253906 0.203125 10.546875 0.203125 C 8.578125 0.203125 6.851562 -0.179688 5.375 -0.953125 C 3.90625 -1.722656 2.773438 -2.8125 1.984375 -4.21875 C 1.203125 -5.625 0.8125 -7.257812 0.8125 -9.125 C 0.8125 -11.007812 1.207031 -12.671875 2 -14.109375 C 2.800781 -15.554688 3.925781 -16.671875 5.375 -17.453125 C 6.832031 -18.234375 8.515625 -18.625 10.421875 -18.625 Z M 13.859375 -10.828125 C 13.859375 -11.890625 13.546875 -12.742188 12.921875 -13.390625 C 12.296875 -14.046875 11.472656 -14.375 10.453125 -14.375 C 9.492188 -14.375 8.691406 -14.054688 8.046875 -13.421875 C 7.398438 -12.785156 6.976562 -11.921875 6.78125 -10.828125 Z M 13.859375 -10.828125 "/></g></g></g><g fill="#003060" fill-opacity="1"><g transform="translate(298.194095, 292.297378)"><g><path d="M 2.484375 0 L 2.484375 -25.265625 L 8.546875 -25.265625 L 8.546875 0 Z M 2.484375 0 "/></g></g></g><g fill="#003060" fill-opacity="1"><g transform="translate(119.104094, 329.047375)"><g><path d="M 14.84375 -25.265625 L 20.90625 -25.265625 L 20.90625 0 L 14.84375 0 L 14.84375 -2.390625 C 14.207031 -1.523438 13.429688 -0.867188 12.515625 -0.421875 C 11.597656 0.015625 10.554688 0.234375 9.390625 0.234375 C 7.691406 0.234375 6.195312 -0.160156 4.90625 -0.953125 C 3.613281 -1.742188 2.609375 -2.859375 1.890625 -4.296875 C 1.171875 -5.742188 0.8125 -7.410156 0.8125 -9.296875 C 0.8125 -11.160156 1.160156 -12.796875 1.859375 -14.203125 C 2.566406 -15.609375 3.554688 -16.695312 4.828125 -17.46875 C 6.097656 -18.238281 7.578125 -18.625 9.265625 -18.625 C 10.441406 -18.625 11.5 -18.394531 12.4375 -17.9375 C 13.382812 -17.488281 14.1875 -16.84375 14.84375 -16 Z M 10.890625 -4.53125 C 12.078125 -4.53125 13.03125 -4.953125 13.75 -5.796875 C 14.476562 -6.648438 14.84375 -7.757812 14.84375 -9.125 C 14.84375 -10.507812 14.476562 -11.617188 13.75 -12.453125 C 13.03125 -13.296875 12.078125 -13.71875 10.890625 -13.71875 C 9.710938 -13.71875 8.753906 -13.289062 8.015625 -12.4375 C 7.273438 -11.59375 6.90625 -10.488281 6.90625 -9.125 C 6.90625 -7.757812 7.273438 -6.648438 8.015625 -5.796875 C 8.753906 -4.953125 9.710938 -4.53125 10.890625 -4.53125 Z M 10.890625 -4.53125 "/></g></g></g><g fill="#003060" fill-opacity="1"><g transform="translate(142.491605, 329.047375)"><g><path d="M 10.421875 -18.625 C 13.410156 -18.625 15.710938 -17.738281 17.328125 -15.96875 C 18.941406 -14.195312 19.75 -11.769531 19.75 -8.6875 C 19.75 -8.207031 19.738281 -7.84375 19.71875 -7.59375 L 6.90625 -7.59375 C 7.207031 -6.550781 7.71875 -5.75 8.4375 -5.1875 C 9.164062 -4.632812 10.050781 -4.359375 11.09375 -4.359375 C 11.894531 -4.359375 12.660156 -4.515625 13.390625 -4.828125 C 14.128906 -5.148438 14.804688 -5.617188 15.421875 -6.234375 L 18.59375 -3.0625 C 17.632812 -2 16.476562 -1.1875 15.125 -0.625 C 13.78125 -0.0703125 12.253906 0.203125 10.546875 0.203125 C 8.578125 0.203125 6.851562 -0.179688 5.375 -0.953125 C 3.90625 -1.722656 2.773438 -2.8125 1.984375 -4.21875 C 1.203125 -5.625 0.8125 -7.257812 0.8125 -9.125 C 0.8125 -11.007812 1.207031 -12.671875 2 -14.109375 C 2.800781 -15.554688 3.925781 -16.671875 5.375 -17.453125 C 6.832031 -18.234375 8.515625 -18.625 10.421875 -18.625 Z M 13.859375 -10.828125 C 13.859375 -11.890625 13.546875 -12.742188 12.921875 -13.390625 C 12.296875 -14.046875 11.472656 -14.375 10.453125 -14.375 C 9.492188 -14.375 8.691406 -14.054688 8.046875 -13.421875 C 7.398438 -12.785156 6.976562 -11.921875 6.78125 -10.828125 Z M 13.859375 -10.828125 "/></g></g></g><g fill="#003060" fill-opacity="1"><g transform="translate(163.0195, 329.047375)"><g><path d="M 13.953125 -18.625 C 15.660156 -18.625 17.160156 -18.234375 18.453125 -17.453125 C 19.742188 -16.671875 20.742188 -15.554688 21.453125 -14.109375 C 22.171875 -12.671875 22.53125 -11.007812 22.53125 -9.125 C 22.53125 -7.257812 22.1875 -5.625 21.5 -4.21875 C 20.8125 -2.8125 19.820312 -1.722656 18.53125 -0.953125 C 17.25 -0.179688 15.769531 0.203125 14.09375 0.203125 C 12.9375 0.203125 11.882812 -0.015625 10.9375 -0.453125 C 10 -0.898438 9.203125 -1.546875 8.546875 -2.390625 L 8.546875 6.609375 L 2.484375 6.609375 L 2.484375 -18.421875 L 8.546875 -18.421875 L 8.546875 -16.03125 C 9.878906 -17.757812 11.679688 -18.625 13.953125 -18.625 Z M 12.46875 -4.703125 C 13.644531 -4.703125 14.597656 -5.117188 15.328125 -5.953125 C 16.066406 -6.796875 16.4375 -7.898438 16.4375 -9.265625 C 16.4375 -10.617188 16.066406 -11.722656 15.328125 -12.578125 C 14.597656 -13.429688 13.644531 -13.859375 12.46875 -13.859375 C 11.300781 -13.859375 10.351562 -13.429688 9.625 -12.578125 C 8.90625 -11.722656 8.546875 -10.617188 8.546875 -9.265625 C 8.546875 -7.898438 8.90625 -6.796875 9.625 -5.953125 C 10.351562 -5.117188 11.300781 -4.703125 12.46875 -4.703125 Z M 12.46875 -4.703125 "/></g></g></g><g fill="#003060" fill-opacity="1"><g transform="translate(186.372965, 329.047375)"><g><path d="M 10.859375 -18.625 C 12.859375 -18.625 14.617188 -18.234375 16.140625 -17.453125 C 17.660156 -16.671875 18.835938 -15.566406 19.671875 -14.140625 C 20.515625 -12.722656 20.9375 -11.085938 20.9375 -9.234375 C 20.9375 -7.347656 20.515625 -5.691406 19.671875 -4.265625 C 18.835938 -2.847656 17.660156 -1.75 16.140625 -0.96875 C 14.617188 -0.1875 12.859375 0.203125 10.859375 0.203125 C 8.859375 0.203125 7.097656 -0.1875 5.578125 -0.96875 C 4.054688 -1.75 2.878906 -2.847656 2.046875 -4.265625 C 1.222656 -5.691406 0.8125 -7.347656 0.8125 -9.234375 C 0.8125 -11.085938 1.222656 -12.722656 2.046875 -14.140625 C 2.878906 -15.566406 4.054688 -16.671875 5.578125 -17.453125 C 7.097656 -18.234375 8.859375 -18.625 10.859375 -18.625 Z M 10.859375 -13.71875 C 9.679688 -13.71875 8.726562 -13.296875 8 -12.453125 C 7.269531 -11.617188 6.90625 -10.519531 6.90625 -9.15625 C 6.90625 -7.769531 7.269531 -6.65625 8 -5.8125 C 8.726562 -4.976562 9.679688 -4.5625 10.859375 -4.5625 C 12.066406 -4.5625 13.03125 -4.976562 13.75 -5.8125 C 14.476562 -6.65625 14.84375 -7.769531 14.84375 -9.15625 C 14.84375 -10.519531 14.472656 -11.617188 13.734375 -12.453125 C 12.992188 -13.296875 12.035156 -13.71875 10.859375 -13.71875 Z M 10.859375 -13.71875 "/></g></g></g><g fill="#003060" fill-opacity="1"><g transform="translate(208.092373, 329.047375)"><g><path d="M 8.375 -15.359375 C 9.007812 -16.421875 9.832031 -17.234375 10.84375 -17.796875 C 11.851562 -18.367188 13.003906 -18.65625 14.296875 -18.65625 L 14.296875 -13.109375 C 14.097656 -13.128906 13.789062 -13.140625 13.375 -13.140625 C 11.945312 -13.140625 10.789062 -12.804688 9.90625 -12.140625 C 9.019531 -11.472656 8.507812 -10.554688 8.375 -9.390625 L 8.375 0 L 2.3125 0 L 2.3125 -18.421875 L 8.375 -18.421875 Z M 8.375 -15.359375 "/></g></g></g><g fill="#003060" fill-opacity="1"><g transform="translate(222.730842, 329.047375)"><g><path d="M 14.296875 -0.953125 C 13.617188 -0.566406 12.835938 -0.265625 11.953125 -0.046875 C 11.066406 0.160156 10.171875 0.265625 9.265625 0.265625 C 7.441406 0.265625 5.96875 -0.253906 4.84375 -1.296875 C 3.726562 -2.335938 3.171875 -3.78125 3.171875 -5.625 L 3.171875 -13.515625 L 0.609375 -13.515625 L 0.609375 -17.53125 L 3.171875 -17.53125 L 3.171875 -22.640625 L 9.1875 -22.640625 L 9.1875 -17.53125 L 13.953125 -17.53125 L 13.953125 -13.515625 L 9.1875 -13.515625 L 9.1875 -6.578125 C 9.1875 -5.273438 9.722656 -4.625 10.796875 -4.625 C 11.453125 -4.625 12.234375 -4.832031 13.140625 -5.25 Z M 14.296875 -0.953125 "/></g></g></g><g fill="#003060" fill-opacity="1"><g transform="translate(237.607611, 329.047375)"><g><path d="M 10.421875 -18.625 C 13.410156 -18.625 15.710938 -17.738281 17.328125 -15.96875 C 18.941406 -14.195312 19.75 -11.769531 19.75 -8.6875 C 19.75 -8.207031 19.738281 -7.84375 19.71875 -7.59375 L 6.90625 -7.59375 C 7.207031 -6.550781 7.71875 -5.75 8.4375 -5.1875 C 9.164062 -4.632812 10.050781 -4.359375 11.09375 -4.359375 C 11.894531 -4.359375 12.660156 -4.515625 13.390625 -4.828125 C 14.128906 -5.148438 14.804688 -5.617188 15.421875 -6.234375 L 18.59375 -3.0625 C 17.632812 -2 16.476562 -1.1875 15.125 -0.625 C 13.78125 -0.0703125 12.253906 0.203125 10.546875 0.203125 C 8.578125 0.203125 6.851562 -0.179688 5.375 -0.953125 C 3.90625 -1.722656 2.773438 -2.8125 1.984375 -4.21875 C 1.203125 -5.625 0.8125 -7.257812 0.8125 -9.125 C 0.8125 -11.007812 1.207031 -12.671875 2 -14.109375 C 2.800781 -15.554688 3.925781 -16.671875 5.375 -17.453125 C 6.832031 -18.234375 8.515625 -18.625 10.421875 -18.625 Z M 13.859375 -10.828125 C 13.859375 -11.890625 13.546875 -12.742188 12.921875 -13.390625 C 12.296875 -14.046875 11.472656 -14.375 10.453125 -14.375 C 9.492188 -14.375 8.691406 -14.054688 8.046875 -13.421875 C 7.398438 -12.785156 6.976562 -11.921875 6.78125 -10.828125 Z M 13.859375 -10.828125 "/></g></g></g><g fill="#003060" fill-opacity="1"><g transform="translate(258.147053, 329.047375)"><g/></g></g></svg>